<?xml version="1.0" encoding="iso-8859-1"?>
<!-- Generator: Adobe Illustrator 18.1.1, SVG Export Plug-In . SVG Version: 6.00 Build 0)  -->
<svg version="1.1" id="Capa_1" xmlns="http://www.w3.org/2000/svg" xmlns:xlink="http://www.w3.org/1999/xlink" x="0px" y="0px"
	 viewBox="0 0 469.706 469.706" style="enable-background:new 0 0 469.706 469.706;" xml:space="preserve">
<g>
	<g>
		<path style="fill:#010002;" d="M426.19,115.25c-0.036-0.525-0.131-1.032-0.304-1.533c-0.072-0.191-0.119-0.376-0.197-0.561
			c-0.292-0.632-0.656-1.235-1.169-1.748L314.86,1.748c-0.513-0.507-1.116-0.877-1.748-1.164c-0.185-0.09-0.376-0.137-0.561-0.203
			c-0.501-0.167-1.014-0.269-1.539-0.304C310.886,0.072,310.767,0,310.635,0H136.486c-3.294,0-5.967,2.673-5.967,5.967v91.854
			H49.406c-3.294,0-5.967,2.673-5.967,5.967v359.951c0,3.3,2.673,5.967,5.967,5.967H333.22c3.294,0,5.967-2.667,5.967-5.967v-91.854
			H420.3c3.294,0,5.967-2.667,5.967-5.967V115.626C426.267,115.495,426.202,115.375,426.19,115.25z M405.896,109.659h-89.288V20.371
			L405.896,109.659z M327.253,457.766H55.373V109.755h81.114h81.108v103.692c0,3.294,2.673,5.967,5.967,5.967h103.692v146.505
			V457.766z M229.528,118.192l89.288,89.288h-89.288V118.192z M339.187,359.951V213.447c0-0.131-0.066-0.251-0.078-0.376
			c-0.036-0.525-0.131-1.032-0.304-1.533c-0.072-0.191-0.119-0.376-0.197-0.561c-0.292-0.632-0.656-1.235-1.169-1.748
			L227.779,99.569c-0.513-0.513-1.116-0.877-1.748-1.17c-0.185-0.084-0.37-0.131-0.561-0.197c-0.501-0.173-1.008-0.274-1.539-0.304
			c-0.125-0.006-0.245-0.078-0.376-0.078h-81.102V11.934h162.221v103.692c0,3.294,2.667,5.967,5.967,5.967h103.692v238.359H339.187z
			"/>
		<polygon style="fill:#010002;" points="197.283,235.28 185.349,235.28 185.349,277.794 142.835,277.794 142.835,289.727 
			185.349,289.727 185.349,332.241 197.283,332.241 197.283,289.727 239.797,289.727 239.797,277.794 197.283,277.794 		"/>
	</g>
</g>
<g>
</g>
<g>
</g>
<g>
</g>
<g>
</g>
<g>
</g>
<g>
</g>
<g>
</g>
<g>
</g>
<g>
</g>
<g>
</g>
<g>
</g>
<g>
</g>
<g>
</g>
<g>
</g>
<g>
</g>
</svg>
